<svg width="215" height="155" viewBox="0 0 215 155" fill="none" xmlns="http://www.w3.org/2000/svg">
<path id="Union" fill-rule="evenodd" clip-rule="evenodd" d="M0 77.7658C0 84.9873 5.85416 90.8415 13.0757 90.8415H159.076L100.996 131.584C91.0671 138.549 95.9952 154.155 108.123 154.155C110.732 154.155 113.275 153.333 115.39 151.805L212.112 81.9415C215.427 79.5465 215.427 74.6088 212.112 72.2138L115.39 2.35011C113.275 0.822327 110.732 1.52588e-05 108.123 1.52588e-05C95.9952 1.52588e-05 91.0671 15.6065 100.996 22.5713L161.039 64.6902L13.0757 64.6902C5.85418 64.6902 0 70.5443 0 77.7658Z" fill="#5C87C9"/>
</svg>
