                        <svg class="garant__return-money-svg" width="741" height="316" viewBox="0 0 741 316" fill="none"
                            xmlns="http://www.w3.org/2000/svg">
                            <path fill-rule="evenodd" clip-rule="evenodd"
                                d="M126 77C98.3858 77 76 99.3858 76 127V237C76 264.614 98.3858 287 126 287H583.357L723.015 315.5L704.799 235.432V127C704.799 99.3858 682.413 77 654.799 77H126Z"
                                fill="#5C87C9" />
                            <rect x="67" y="56" width="613.467" height="210" rx="50" fill="white" />
                            <path d="M679.15 208.5L698.239 294.5L561.986 266L679.15 208.5Z" fill="white" />
                            <path
                                d="M259.332 84.84V117H250.692V92.52H234.852V117H226.212V84.84H259.332ZM267.495 93L270.087 94.536C271.623 93.704 273.255 93.08 274.983 92.664C276.711 92.248 278.631 92.04 280.743 92.04C283.431 92.04 285.655 92.36 287.415 93C289.175 93.608 290.583 94.456 291.639 95.544C292.695 96.632 293.431 97.912 293.847 99.384C294.263 100.824 294.471 102.376 294.471 104.04V105.96C294.471 107.624 294.263 109.192 293.847 110.664C293.431 112.104 292.695 113.368 291.639 114.456C290.583 115.544 289.175 116.392 287.415 117C285.655 117.64 283.431 117.96 280.743 117.96C279.303 117.96 277.975 117.864 276.759 117.672C275.543 117.48 274.375 117.208 273.255 116.856V129H265.575V93H267.495ZM280.311 99C278.967 99 277.719 99.096 276.567 99.288C275.415 99.448 274.311 99.704 273.255 100.056V109.992C275.367 110.664 277.719 111 280.311 111C281.943 111 283.191 110.84 284.055 110.52C284.919 110.168 285.559 109.72 285.975 109.176C286.391 108.632 286.631 107.992 286.695 107.256C286.759 106.52 286.791 105.768 286.791 105C286.791 104.232 286.759 103.48 286.695 102.744C286.631 102.008 286.391 101.368 285.975 100.824C285.559 100.28 284.919 99.848 284.055 99.528C283.191 99.176 281.943 99 280.311 99ZM300.216 104.04C300.216 102.376 300.424 100.824 300.84 99.384C301.256 97.912 301.992 96.632 303.048 95.544C304.104 94.456 305.512 93.608 307.272 93C309.032 92.36 311.256 92.04 313.944 92.04H315.288C317.976 92.04 320.2 92.36 321.96 93C323.72 93.608 325.128 94.456 326.184 95.544C327.24 96.632 327.976 97.912 328.392 99.384C328.808 100.824 329.016 102.376 329.016 104.04V105.96C329.016 107.624 328.808 109.192 328.392 110.664C327.976 112.104 327.24 113.368 326.184 114.456C325.128 115.544 323.72 116.392 321.96 117C320.2 117.64 317.976 117.96 315.288 117.96H313.944C311.256 117.96 309.032 117.64 307.272 117C305.512 116.392 304.104 115.544 303.048 114.456C301.992 113.368 301.256 112.104 300.84 110.664C300.424 109.192 300.216 107.624 300.216 105.96V104.04ZM307.896 105C307.896 105.768 307.928 106.52 307.992 107.256C308.056 107.992 308.296 108.632 308.712 109.176C309.16 109.72 309.832 110.168 310.728 110.52C311.624 110.84 312.92 111 314.616 111C316.28 111 317.56 110.84 318.456 110.52C319.384 110.168 320.056 109.72 320.472 109.176C320.92 108.632 321.176 107.992 321.24 107.256C321.304 106.52 321.336 105.768 321.336 105C321.336 104.232 321.304 103.48 321.24 102.744C321.176 102.008 320.92 101.368 320.472 100.824C320.056 100.28 319.384 99.848 318.456 99.528C317.56 99.176 316.28 99 314.616 99C312.92 99 311.624 99.176 310.728 99.528C309.832 99.848 309.16 100.28 308.712 100.824C308.296 101.368 308.056 102.008 307.992 102.744C307.928 103.48 307.896 104.232 307.896 105ZM335.003 93C337.211 92.744 339.515 92.552 341.915 92.424C344.347 92.296 346.731 92.232 349.067 92.232H350.123C352.267 92.232 354.043 92.408 355.451 92.76C356.859 93.08 357.979 93.528 358.811 94.104C359.675 94.68 360.267 95.352 360.587 96.12C360.939 96.888 361.115 97.704 361.115 98.568V99.336C361.115 100.552 360.763 101.656 360.059 102.648C359.387 103.608 358.155 104.328 356.363 104.808C358.443 105.32 359.883 106.104 360.683 107.16C361.483 108.216 361.883 109.384 361.883 110.664V111.432C361.883 112.296 361.691 113.112 361.307 113.88C360.955 114.648 360.331 115.32 359.435 115.896C358.571 116.472 357.371 116.92 355.835 117.24C354.331 117.592 352.427 117.768 350.123 117.768H349.067C346.731 117.768 344.347 117.704 341.915 117.576C339.515 117.448 337.211 117.256 335.003 117V93ZM342.683 107.592V111.288C343.835 111.416 345.003 111.512 346.187 111.576C347.403 111.608 348.443 111.624 349.307 111.624C350.491 111.624 351.419 111.576 352.091 111.48C352.763 111.352 353.259 111.208 353.579 111.048C353.899 110.856 354.091 110.648 354.155 110.424C354.251 110.2 354.299 109.96 354.299 109.704C354.299 109.416 354.267 109.144 354.203 108.888C354.139 108.632 353.931 108.408 353.579 108.216C353.259 108.024 352.715 107.88 351.947 107.784C351.179 107.656 350.107 107.592 348.731 107.592H342.683ZM349.211 98.376C348.379 98.376 347.355 98.392 346.139 98.424C344.955 98.456 343.803 98.552 342.683 98.712V102.408H348.731C349.915 102.408 350.827 102.36 351.467 102.264C352.139 102.136 352.619 101.976 352.907 101.784C353.227 101.592 353.403 101.368 353.435 101.112C353.499 100.856 353.531 100.584 353.531 100.296C353.531 100.04 353.499 99.8 353.435 99.576C353.371 99.352 353.195 99.16 352.907 99C352.619 98.808 352.187 98.664 351.611 98.568C351.035 98.44 350.235 98.376 349.211 98.376ZM381.35 117.96C378.662 117.96 376.438 117.64 374.678 117C372.918 116.392 371.51 115.544 370.454 114.456C369.398 113.368 368.662 112.104 368.246 110.664C367.83 109.192 367.622 107.624 367.622 105.96V104.04C367.622 102.376 367.83 100.824 368.246 99.384C368.662 97.912 369.398 96.632 370.454 95.544C371.51 94.456 372.918 93.608 374.678 93C376.438 92.36 378.662 92.04 381.35 92.04H382.694C385.414 92.04 387.638 92.248 389.366 92.664C391.094 93.048 392.438 93.592 393.398 94.296C394.358 95 395.014 95.816 395.366 96.744C395.718 97.672 395.894 98.664 395.894 99.72V100.2C395.894 101.16 395.766 102.072 395.51 102.936C395.286 103.8 394.726 104.568 393.83 105.24C392.934 105.912 391.606 106.44 389.846 106.824C388.118 107.208 385.75 107.4 382.742 107.4C381.302 107.4 379.974 107.336 378.758 107.208C377.542 107.08 376.39 106.856 375.302 106.536C375.334 107.208 375.446 107.832 375.638 108.408C375.83 108.952 376.182 109.416 376.694 109.8C377.238 110.184 377.99 110.488 378.95 110.712C379.91 110.904 381.19 111 382.79 111C383.558 111 384.406 110.968 385.334 110.904C386.294 110.84 387.27 110.76 388.262 110.664C389.286 110.536 390.278 110.392 391.238 110.232C392.23 110.04 393.142 109.816 393.974 109.56V116.76C393.142 116.952 392.23 117.112 391.238 117.24C390.278 117.4 389.27 117.528 388.214 117.624C387.19 117.752 386.166 117.832 385.142 117.864C384.118 117.928 383.158 117.96 382.262 117.96H381.35ZM382.742 98.04C381.462 98.04 380.39 98.12 379.526 98.28C378.662 98.408 377.958 98.616 377.414 98.904C376.87 99.192 376.454 99.544 376.166 99.96C375.878 100.376 375.67 100.856 375.542 101.4C376.47 101.656 377.462 101.848 378.518 101.976C379.606 102.072 380.854 102.12 382.262 102.12C383.67 102.12 384.774 102.072 385.574 101.976C386.374 101.848 386.966 101.704 387.35 101.544C387.734 101.352 387.974 101.16 388.07 100.968C388.166 100.744 388.214 100.52 388.214 100.296C388.214 100.072 388.166 99.832 388.07 99.576C388.006 99.288 387.782 99.032 387.398 98.808C387.046 98.584 386.502 98.408 385.766 98.28C385.03 98.12 384.022 98.04 382.742 98.04ZM403.573 93L406.165 94.536C407.701 93.704 409.333 93.08 411.061 92.664C412.789 92.248 414.709 92.04 416.821 92.04C419.509 92.04 421.733 92.36 423.493 93C425.253 93.608 426.661 94.456 427.717 95.544C428.773 96.632 429.509 97.912 429.925 99.384C430.341 100.824 430.549 102.376 430.549 104.04V105.96C430.549 107.624 430.341 109.192 429.925 110.664C429.509 112.104 428.773 113.368 427.717 114.456C426.661 115.544 425.253 116.392 423.493 117C421.733 117.64 419.509 117.96 416.821 117.96C415.381 117.96 414.053 117.864 412.837 117.672C411.621 117.48 410.453 117.208 409.333 116.856V129H401.653V93H403.573ZM416.389 99C415.045 99 413.797 99.096 412.645 99.288C411.493 99.448 410.389 99.704 409.333 100.056V109.992C411.445 110.664 413.797 111 416.389 111C418.021 111 419.269 110.84 420.133 110.52C420.997 110.168 421.637 109.72 422.053 109.176C422.469 108.632 422.709 107.992 422.773 107.256C422.837 106.52 422.869 105.768 422.869 105C422.869 104.232 422.837 103.48 422.773 102.744C422.709 102.008 422.469 101.368 422.053 100.824C421.637 100.28 420.997 99.848 420.133 99.528C419.269 99.176 418.021 99 416.389 99ZM450.022 117.96C447.334 117.96 445.11 117.64 443.35 117C441.59 116.392 440.182 115.544 439.126 114.456C438.07 113.368 437.334 112.104 436.918 110.664C436.502 109.192 436.294 107.624 436.294 105.96V104.04C436.294 102.376 436.502 100.824 436.918 99.384C437.334 97.912 438.07 96.632 439.126 95.544C440.182 94.456 441.59 93.608 443.35 93C445.11 92.36 447.334 92.04 450.022 92.04H451.366C454.086 92.04 456.31 92.248 458.038 92.664C459.766 93.048 461.11 93.592 462.07 94.296C463.03 95 463.686 95.816 464.038 96.744C464.39 97.672 464.566 98.664 464.566 99.72V100.2C464.566 101.16 464.438 102.072 464.182 102.936C463.958 103.8 463.398 104.568 462.502 105.24C461.606 105.912 460.278 106.44 458.518 106.824C456.79 107.208 454.422 107.4 451.414 107.4C449.974 107.4 448.646 107.336 447.43 107.208C446.214 107.08 445.062 106.856 443.974 106.536C444.006 107.208 444.118 107.832 444.31 108.408C444.502 108.952 444.854 109.416 445.366 109.8C445.91 110.184 446.662 110.488 447.622 110.712C448.582 110.904 449.862 111 451.462 111C452.23 111 453.078 110.968 454.006 110.904C454.966 110.84 455.942 110.76 456.934 110.664C457.958 110.536 458.95 110.392 459.91 110.232C460.902 110.04 461.814 109.816 462.646 109.56V116.76C461.814 116.952 460.902 117.112 459.91 117.24C458.95 117.4 457.942 117.528 456.886 117.624C455.862 117.752 454.838 117.832 453.814 117.864C452.79 117.928 451.83 117.96 450.934 117.96H450.022ZM451.414 98.04C450.134 98.04 449.062 98.12 448.198 98.28C447.334 98.408 446.63 98.616 446.086 98.904C445.542 99.192 445.126 99.544 444.838 99.96C444.55 100.376 444.342 100.856 444.214 101.4C445.142 101.656 446.134 101.848 447.19 101.976C448.278 102.072 449.526 102.12 450.934 102.12C452.342 102.12 453.446 102.072 454.246 101.976C455.046 101.848 455.638 101.704 456.022 101.544C456.406 101.352 456.646 101.16 456.742 100.968C456.838 100.744 456.886 100.52 456.886 100.296C456.886 100.072 456.838 99.832 456.742 99.576C456.678 99.288 456.454 99.032 456.07 98.808C455.718 98.584 455.174 98.408 454.438 98.28C453.702 98.12 452.694 98.04 451.414 98.04ZM478.245 93V101.64H491.781V93H499.461V117H491.781V108.36H478.245V117H470.565V93H478.245ZM505.482 104.04C505.482 102.376 505.69 100.824 506.106 99.384C506.522 97.912 507.258 96.632 508.314 95.544C509.37 94.456 510.778 93.608 512.538 93C514.298 92.36 516.522 92.04 519.21 92.04H520.554C523.242 92.04 525.466 92.36 527.226 93C528.986 93.608 530.394 94.456 531.45 95.544C532.506 96.632 533.242 97.912 533.658 99.384C534.074 100.824 534.282 102.376 534.282 104.04V105.96C534.282 107.624 534.074 109.192 533.658 110.664C533.242 112.104 532.506 113.368 531.45 114.456C530.394 115.544 528.986 116.392 527.226 117C525.466 117.64 523.242 117.96 520.554 117.96H519.21C516.522 117.96 514.298 117.64 512.538 117C510.778 116.392 509.37 115.544 508.314 114.456C507.258 113.368 506.522 112.104 506.106 110.664C505.69 109.192 505.482 107.624 505.482 105.96V104.04ZM513.162 105C513.162 105.768 513.194 106.52 513.258 107.256C513.322 107.992 513.562 108.632 513.978 109.176C514.426 109.72 515.098 110.168 515.994 110.52C516.89 110.84 518.186 111 519.882 111C521.546 111 522.826 110.84 523.722 110.52C524.65 110.168 525.322 109.72 525.738 109.176C526.186 108.632 526.442 107.992 526.506 107.256C526.57 106.52 526.602 105.768 526.602 105C526.602 104.232 526.57 103.48 526.506 102.744C526.442 102.008 526.186 101.368 525.738 100.824C525.322 100.28 524.65 99.848 523.722 99.528C522.826 99.176 521.546 99 519.882 99C518.186 99 516.89 99.176 515.994 99.528C515.098 99.848 514.426 100.28 513.978 100.824C513.562 101.368 513.322 102.008 513.258 102.744C513.194 103.48 513.162 104.232 513.162 105ZM117.18 159.96C117.18 161.624 116.972 163.192 116.556 164.664C116.14 166.104 115.404 167.368 114.348 168.456C113.292 169.544 111.884 170.392 110.124 171C108.364 171.64 106.14 171.96 103.452 171.96H102.108C100.38 171.96 98.6843 171.848 97.0203 171.624C95.3883 171.432 93.7883 171.144 92.2203 170.76V163.608C94.0123 164.12 95.8043 164.488 97.5963 164.712C99.3883 164.904 100.956 165 102.3 165C103.548 165 104.588 164.936 105.42 164.808C106.252 164.648 106.924 164.44 107.436 164.184C107.98 163.896 108.38 163.56 108.636 163.176C108.924 162.792 109.132 162.36 109.26 161.88H96.3003V156.12H109.308C109.18 155.64 108.972 155.208 108.684 154.824C108.428 154.44 108.028 154.12 107.484 153.864C106.972 153.576 106.284 153.368 105.42 153.24C104.588 153.08 103.548 153 102.3 153C100.956 153 99.3883 153.112 97.5963 153.336C95.8043 153.528 94.0123 153.88 92.2203 154.392V147.24C93.7883 146.856 95.3883 146.568 97.0203 146.376C98.6843 146.152 100.38 146.04 102.108 146.04H103.452C106.14 146.04 108.364 146.36 110.124 147C111.884 147.608 113.292 148.456 114.348 149.544C115.404 150.632 116.14 151.912 116.556 153.384C116.972 154.824 117.18 156.376 117.18 158.04V159.96ZM143.671 171L138.295 162.552H130.615V171H122.935V147L130.615 147.048V155.448H138.295L143.671 147H151.063V148.92L144.679 159L151.063 169.08V171H143.671ZM154.903 158.04C154.903 156.376 155.111 154.824 155.527 153.384C155.943 151.912 156.679 150.632 157.735 149.544C158.791 148.456 160.199 147.608 161.959 147C163.719 146.36 165.943 146.04 168.631 146.04H169.975C171.703 146.04 173.383 146.152 175.015 146.376C176.679 146.568 178.295 146.856 179.863 147.24V154.392C178.071 153.88 176.279 153.528 174.487 153.336C172.695 153.112 171.127 153 169.783 153C167.991 153 166.599 153.16 165.607 153.48C164.647 153.768 163.943 154.184 163.495 154.728C163.047 155.24 162.775 155.864 162.679 156.6C162.615 157.336 162.583 158.136 162.583 159C162.583 159.864 162.615 160.664 162.679 161.4C162.775 162.136 163.047 162.776 163.495 163.32C163.943 163.832 164.647 164.248 165.607 164.568C166.599 164.856 167.991 165 169.783 165C171.127 165 172.695 164.904 174.487 164.712C176.279 164.488 178.071 164.12 179.863 163.608V170.76C178.295 171.144 176.679 171.432 175.015 171.624C173.383 171.848 171.703 171.96 169.975 171.96H168.631C165.943 171.96 163.719 171.64 161.959 171C160.199 170.392 158.791 169.544 157.735 168.456C156.679 167.368 155.943 166.104 155.527 164.664C155.111 163.192 154.903 161.624 154.903 159.96V158.04ZM213.783 147V171H206.103V153.72H193.527V171H185.847V147H213.783ZM233.506 171.96C230.818 171.96 228.594 171.64 226.834 171C225.074 170.392 223.666 169.544 222.61 168.456C221.554 167.368 220.818 166.104 220.402 164.664C219.986 163.192 219.778 161.624 219.778 159.96V158.04C219.778 156.376 219.986 154.824 220.402 153.384C220.818 151.912 221.554 150.632 222.61 149.544C223.666 148.456 225.074 147.608 226.834 147C228.594 146.36 230.818 146.04 233.506 146.04H234.85C237.57 146.04 239.794 146.248 241.522 146.664C243.25 147.048 244.594 147.592 245.554 148.296C246.514 149 247.17 149.816 247.522 150.744C247.874 151.672 248.05 152.664 248.05 153.72V154.2C248.05 155.16 247.922 156.072 247.666 156.936C247.442 157.8 246.882 158.568 245.986 159.24C245.09 159.912 243.762 160.44 242.002 160.824C240.274 161.208 237.906 161.4 234.898 161.4C233.458 161.4 232.13 161.336 230.914 161.208C229.698 161.08 228.546 160.856 227.458 160.536C227.49 161.208 227.602 161.832 227.794 162.408C227.986 162.952 228.338 163.416 228.85 163.8C229.394 164.184 230.146 164.488 231.106 164.712C232.066 164.904 233.346 165 234.946 165C235.714 165 236.562 164.968 237.49 164.904C238.45 164.84 239.426 164.76 240.418 164.664C241.442 164.536 242.434 164.392 243.394 164.232C244.386 164.04 245.298 163.816 246.13 163.56V170.76C245.298 170.952 244.386 171.112 243.394 171.24C242.434 171.4 241.426 171.528 240.37 171.624C239.346 171.752 238.322 171.832 237.298 171.864C236.274 171.928 235.314 171.96 234.418 171.96H233.506ZM234.898 152.04C233.618 152.04 232.546 152.12 231.682 152.28C230.818 152.408 230.114 152.616 229.57 152.904C229.026 153.192 228.61 153.544 228.322 153.96C228.034 154.376 227.826 154.856 227.698 155.4C228.626 155.656 229.618 155.848 230.674 155.976C231.762 156.072 233.01 156.12 234.418 156.12C235.826 156.12 236.93 156.072 237.73 155.976C238.53 155.848 239.122 155.704 239.506 155.544C239.89 155.352 240.13 155.16 240.226 154.968C240.322 154.744 240.37 154.52 240.37 154.296C240.37 154.072 240.322 153.832 240.226 153.576C240.162 153.288 239.938 153.032 239.554 152.808C239.202 152.584 238.658 152.408 237.922 152.28C237.186 152.12 236.178 152.04 234.898 152.04ZM255.73 147L258.322 148.536C259.858 147.704 261.49 147.08 263.218 146.664C264.946 146.248 266.866 146.04 268.978 146.04C271.666 146.04 273.89 146.36 275.65 147C277.41 147.608 278.818 148.456 279.874 149.544C280.93 150.632 281.666 151.912 282.082 153.384C282.498 154.824 282.706 156.376 282.706 158.04V159.96C282.706 161.624 282.498 163.192 282.082 164.664C281.666 166.104 280.93 167.368 279.874 168.456C278.818 169.544 277.41 170.392 275.65 171C273.89 171.64 271.666 171.96 268.978 171.96C267.538 171.96 266.21 171.864 264.994 171.672C263.778 171.48 262.61 171.208 261.49 170.856V183H253.81V147H255.73ZM268.546 153C267.202 153 265.954 153.096 264.802 153.288C263.65 153.448 262.546 153.704 261.49 154.056V163.992C263.602 164.664 265.954 165 268.546 165C270.178 165 271.426 164.84 272.29 164.52C273.154 164.168 273.794 163.72 274.21 163.176C274.626 162.632 274.866 161.992 274.93 161.256C274.994 160.52 275.026 159.768 275.026 159C275.026 158.232 274.994 157.48 274.93 156.744C274.866 156.008 274.626 155.368 274.21 154.824C273.794 154.28 273.154 153.848 272.29 153.528C271.426 153.176 270.178 153 268.546 153ZM302.178 171.96C299.49 171.96 297.266 171.64 295.506 171C293.746 170.392 292.338 169.544 291.282 168.456C290.226 167.368 289.49 166.104 289.074 164.664C288.658 163.192 288.45 161.624 288.45 159.96V158.04C288.45 156.376 288.658 154.824 289.074 153.384C289.49 151.912 290.226 150.632 291.282 149.544C292.338 148.456 293.746 147.608 295.506 147C297.266 146.36 299.49 146.04 302.178 146.04H303.522C306.242 146.04 308.466 146.248 310.194 146.664C311.922 147.048 313.266 147.592 314.226 148.296C315.186 149 315.842 149.816 316.194 150.744C316.546 151.672 316.722 152.664 316.722 153.72V154.2C316.722 155.16 316.594 156.072 316.338 156.936C316.114 157.8 315.554 158.568 314.658 159.24C313.762 159.912 312.434 160.44 310.674 160.824C308.946 161.208 306.578 161.4 303.57 161.4C302.13 161.4 300.802 161.336 299.586 161.208C298.37 161.08 297.218 160.856 296.13 160.536C296.162 161.208 296.274 161.832 296.466 162.408C296.658 162.952 297.01 163.416 297.522 163.8C298.066 164.184 298.818 164.488 299.778 164.712C300.738 164.904 302.018 165 303.618 165C304.386 165 305.234 164.968 306.162 164.904C307.122 164.84 308.098 164.76 309.09 164.664C310.114 164.536 311.106 164.392 312.066 164.232C313.058 164.04 313.97 163.816 314.802 163.56V170.76C313.97 170.952 313.058 171.112 312.066 171.24C311.106 171.4 310.098 171.528 309.042 171.624C308.018 171.752 306.994 171.832 305.97 171.864C304.946 171.928 303.986 171.96 303.09 171.96H302.178ZM303.57 152.04C302.29 152.04 301.218 152.12 300.354 152.28C299.49 152.408 298.786 152.616 298.242 152.904C297.698 153.192 297.282 153.544 296.994 153.96C296.706 154.376 296.498 154.856 296.37 155.4C297.298 155.656 298.29 155.848 299.346 155.976C300.434 156.072 301.682 156.12 303.09 156.12C304.498 156.12 305.602 156.072 306.402 155.976C307.202 155.848 307.794 155.704 308.178 155.544C308.562 155.352 308.802 155.16 308.898 154.968C308.994 154.744 309.042 154.52 309.042 154.296C309.042 154.072 308.994 153.832 308.898 153.576C308.834 153.288 308.61 153.032 308.226 152.808C307.874 152.584 307.33 152.408 306.594 152.28C305.858 152.12 304.85 152.04 303.57 152.04ZM336.546 165.72L330.402 157.944V171H322.722V147H329.634L338.322 157.656L347.01 147H353.922V171H346.242V157.944L340.098 165.72H336.546ZM373.663 171.96C370.975 171.96 368.751 171.64 366.991 171C365.231 170.392 363.823 169.544 362.767 168.456C361.711 167.368 360.975 166.104 360.559 164.664C360.143 163.192 359.935 161.624 359.935 159.96V158.04C359.935 156.376 360.143 154.824 360.559 153.384C360.975 151.912 361.711 150.632 362.767 149.544C363.823 148.456 365.231 147.608 366.991 147C368.751 146.36 370.975 146.04 373.663 146.04H375.007C377.727 146.04 379.951 146.248 381.679 146.664C383.407 147.048 384.751 147.592 385.711 148.296C386.671 149 387.327 149.816 387.679 150.744C388.031 151.672 388.207 152.664 388.207 153.72V154.2C388.207 155.16 388.079 156.072 387.823 156.936C387.599 157.8 387.039 158.568 386.143 159.24C385.247 159.912 383.919 160.44 382.159 160.824C380.431 161.208 378.063 161.4 375.055 161.4C373.615 161.4 372.287 161.336 371.071 161.208C369.855 161.08 368.703 160.856 367.615 160.536C367.647 161.208 367.759 161.832 367.951 162.408C368.143 162.952 368.495 163.416 369.007 163.8C369.551 164.184 370.303 164.488 371.263 164.712C372.223 164.904 373.503 165 375.103 165C375.871 165 376.719 164.968 377.647 164.904C378.607 164.84 379.583 164.76 380.575 164.664C381.599 164.536 382.591 164.392 383.551 164.232C384.543 164.04 385.455 163.816 386.287 163.56V170.76C385.455 170.952 384.543 171.112 383.551 171.24C382.591 171.4 381.583 171.528 380.527 171.624C379.503 171.752 378.479 171.832 377.455 171.864C376.431 171.928 375.471 171.96 374.575 171.96H373.663ZM375.055 152.04C373.775 152.04 372.703 152.12 371.839 152.28C370.975 152.408 370.271 152.616 369.727 152.904C369.183 153.192 368.767 153.544 368.479 153.96C368.191 154.376 367.983 154.856 367.855 155.4C368.783 155.656 369.775 155.848 370.831 155.976C371.919 156.072 373.167 156.12 374.575 156.12C375.983 156.12 377.087 156.072 377.887 155.976C378.687 155.848 379.279 155.704 379.663 155.544C380.047 155.352 380.287 155.16 380.383 154.968C380.479 154.744 380.527 154.52 380.527 154.296C380.527 154.072 380.479 153.832 380.383 153.576C380.319 153.288 380.095 153.032 379.711 152.808C379.359 152.584 378.815 152.408 378.079 152.28C377.343 152.12 376.335 152.04 375.055 152.04ZM401.886 147V155.64H415.422V147H423.102V171H415.422V162.36H401.886V171H394.206V147H401.886ZM436.322 171V153.96H427.202V147H453.17V153.96H444.002V171H436.322ZM485.534 171H483.614L481.022 169.512C479.39 170.344 477.694 170.952 475.934 171.336C474.174 171.752 472.19 171.96 469.982 171.96C467.39 171.96 465.23 171.736 463.502 171.288C461.806 170.872 460.446 170.296 459.422 169.56C458.398 168.792 457.678 167.928 457.262 166.968C456.846 165.976 456.638 164.952 456.638 163.896V163.416C456.638 162.424 456.846 161.48 457.262 160.584C457.71 159.688 458.446 158.904 459.47 158.232C460.526 157.56 461.886 157.032 463.55 156.648C465.246 156.264 467.342 156.072 469.838 156.072C472.974 156.072 475.646 156.376 477.854 156.984C477.822 156.344 477.726 155.784 477.566 155.304C477.438 154.792 477.134 154.376 476.654 154.056C476.174 153.704 475.454 153.448 474.494 153.288C473.566 153.096 472.318 153 470.75 153C469.886 153 468.958 153.032 467.966 153.096C466.974 153.16 465.966 153.256 464.942 153.384C463.95 153.48 462.958 153.624 461.966 153.816C461.006 154.008 460.11 154.216 459.278 154.44V147.24C460.11 147.048 461.006 146.888 461.966 146.76C462.958 146.6 463.966 146.472 464.99 146.376C466.046 146.248 467.07 146.168 468.062 146.136C469.086 146.072 470.062 146.04 470.99 146.04C473.678 146.04 475.934 146.28 477.758 146.76C479.614 147.208 481.118 147.88 482.27 148.776C483.422 149.64 484.254 150.728 484.766 152.04C485.278 153.352 485.534 154.872 485.534 156.6V171ZM470.798 165.96C473.326 165.96 475.678 165.624 477.854 164.952V162.696C476.766 162.408 475.614 162.2 474.398 162.072C473.182 161.912 471.822 161.832 470.318 161.832C468.878 161.832 467.758 161.896 466.958 162.024C466.158 162.152 465.566 162.328 465.182 162.552C464.798 162.744 464.558 162.968 464.462 163.224C464.366 163.48 464.318 163.72 464.318 163.944C464.318 164.232 464.366 164.504 464.462 164.76C464.558 164.984 464.814 165.192 465.23 165.384C465.678 165.576 466.334 165.72 467.198 165.816C468.062 165.912 469.262 165.96 470.798 165.96ZM491.518 164.616C492.67 164.616 493.438 164.344 493.822 163.8C494.206 163.224 494.43 162.408 494.494 161.352L495.358 147H519.646V171H511.966V153.912H502.414L501.934 162.216C501.838 163.72 501.63 165.064 501.31 166.248C500.99 167.4 500.478 168.376 499.774 169.176C499.07 169.944 498.158 170.536 497.038 170.952C495.95 171.336 494.574 171.528 492.91 171.528C492.27 171.528 491.614 171.496 490.942 171.432C490.27 171.368 489.662 171.256 489.118 171.096V164.472C489.47 164.536 489.87 164.584 490.318 164.616C490.766 164.616 491.166 164.616 491.518 164.616ZM552.758 163.992C552.758 165.08 552.566 166.104 552.182 167.064C551.83 167.992 551.206 168.808 550.31 169.512C549.446 170.216 548.246 170.76 546.71 171.144C545.206 171.56 543.302 171.768 540.998 171.768H539.942C537.606 171.768 535.222 171.704 532.79 171.576C530.39 171.448 528.086 171.256 525.878 171V147H533.558V154.872C534.614 154.808 535.67 154.76 536.726 154.728C537.814 154.696 538.886 154.68 539.942 154.68H540.998C543.302 154.68 545.206 154.888 546.71 155.304C548.246 155.688 549.446 156.232 550.31 156.936C551.206 157.64 551.83 158.472 552.182 159.432C552.566 160.36 552.758 161.368 552.758 162.456V163.992ZM540.182 160.824C539.318 160.824 538.278 160.856 537.062 160.92C535.878 160.952 534.71 161.032 533.558 161.16V165.288C534.71 165.416 535.878 165.512 537.062 165.576C538.278 165.608 539.318 165.624 540.182 165.624C541.366 165.624 542.294 165.56 542.966 165.432C543.638 165.304 544.134 165.128 544.454 164.904C544.774 164.68 544.966 164.424 545.03 164.136C545.126 163.848 545.174 163.544 545.174 163.224C545.174 162.904 545.126 162.6 545.03 162.312C544.966 162.024 544.774 161.768 544.454 161.544C544.134 161.32 543.638 161.144 542.966 161.016C542.294 160.888 541.366 160.824 540.182 160.824ZM565.948 147V155.64H579.484V147H587.164V171H579.484V162.36H565.948V171H558.268V147H565.948ZM619.345 163.992C619.345 165.08 619.169 166.104 618.817 167.064C618.497 167.992 617.921 168.808 617.089 169.512C616.289 170.216 615.185 170.76 613.777 171.144C612.401 171.56 610.657 171.768 608.545 171.768H607.489C605.153 171.768 602.769 171.704 600.337 171.576C597.937 171.448 595.633 171.256 593.425 171V147H601.105V154.872C602.161 154.808 603.217 154.76 604.273 154.728C605.361 154.696 606.433 154.68 607.489 154.68H608.545C610.657 154.68 612.401 154.888 613.777 155.304C615.185 155.688 616.289 156.232 617.089 156.936C617.921 157.64 618.497 158.472 618.817 159.432C619.169 160.36 619.345 161.368 619.345 162.456V163.992ZM629.617 147V171H622.417V147H629.617ZM607.729 160.824C606.865 160.824 605.825 160.856 604.609 160.92C603.425 160.952 602.257 161.032 601.105 161.16V165.288C602.257 165.416 603.425 165.512 604.609 165.576C605.825 165.608 606.865 165.624 607.729 165.624C608.689 165.624 609.441 165.56 609.985 165.432C610.529 165.304 610.929 165.128 611.185 164.904C611.441 164.68 611.601 164.424 611.665 164.136C611.729 163.848 611.761 163.544 611.761 163.224C611.761 162.904 611.729 162.6 611.665 162.312C611.601 162.024 611.441 161.768 611.185 161.544C610.929 161.32 610.529 161.144 609.985 161.016C609.441 160.888 608.689 160.824 607.729 160.824ZM649.671 165.72L643.527 157.944V171H635.847V147H642.759L651.447 157.656L660.135 147H667.047V171H659.367V157.944L653.223 165.72H649.671ZM320.001 201V225H312.321V207.72H299.745V225H292.065V201H320.001ZM341.693 227.64C341.053 229.048 340.413 230.328 339.773 231.48C339.133 232.632 338.397 233.608 337.565 234.408C336.733 235.24 335.741 235.88 334.589 236.328C333.469 236.776 332.109 237 330.509 237C329.869 237 329.181 236.952 328.445 236.856C327.709 236.792 327.053 236.68 326.477 236.52V229.704C327.021 229.832 327.645 229.912 328.349 229.944C329.085 230.008 329.693 230.04 330.173 230.04C330.973 230.04 331.613 229.96 332.093 229.8C332.605 229.672 333.021 229.464 333.341 229.176C333.693 228.888 333.981 228.536 334.205 228.12C334.461 227.704 334.717 227.224 334.973 226.68L335.309 225.864L323.837 202.92V201H331.037L338.669 217.56L345.389 201H352.589V202.92L341.693 227.64ZM365.588 225V207.96H356.468V201H382.436V207.96H373.268V225H365.588ZM400.803 225.96C398.115 225.96 395.891 225.64 394.131 225C392.371 224.392 390.963 223.544 389.907 222.456C388.851 221.368 388.115 220.104 387.699 218.664C387.283 217.192 387.075 215.624 387.075 213.96V212.04C387.075 210.376 387.283 208.824 387.699 207.384C388.115 205.912 388.851 204.632 389.907 203.544C390.963 202.456 392.371 201.608 394.131 201C395.891 200.36 398.115 200.04 400.803 200.04H402.147C404.867 200.04 407.091 200.248 408.819 200.664C410.547 201.048 411.891 201.592 412.851 202.296C413.811 203 414.467 203.816 414.819 204.744C415.171 205.672 415.347 206.664 415.347 207.72V208.2C415.347 209.16 415.219 210.072 414.963 210.936C414.739 211.8 414.179 212.568 413.283 213.24C412.387 213.912 411.059 214.44 409.299 214.824C407.571 215.208 405.203 215.4 402.195 215.4C400.755 215.4 399.427 215.336 398.211 215.208C396.995 215.08 395.843 214.856 394.755 214.536C394.787 215.208 394.899 215.832 395.091 216.408C395.283 216.952 395.635 217.416 396.147 217.8C396.691 218.184 397.443 218.488 398.403 218.712C399.363 218.904 400.643 219 402.243 219C403.011 219 403.859 218.968 404.787 218.904C405.747 218.84 406.723 218.76 407.715 218.664C408.739 218.536 409.731 218.392 410.691 218.232C411.683 218.04 412.595 217.816 413.427 217.56V224.76C412.595 224.952 411.683 225.112 410.691 225.24C409.731 225.4 408.723 225.528 407.667 225.624C406.643 225.752 405.619 225.832 404.595 225.864C403.571 225.928 402.611 225.96 401.715 225.96H400.803ZM402.195 206.04C400.915 206.04 399.843 206.12 398.979 206.28C398.115 206.408 397.411 206.616 396.867 206.904C396.323 207.192 395.907 207.544 395.619 207.96C395.331 208.376 395.123 208.856 394.995 209.4C395.923 209.656 396.915 209.848 397.971 209.976C399.059 210.072 400.307 210.12 401.715 210.12C403.123 210.12 404.227 210.072 405.027 209.976C405.827 209.848 406.419 209.704 406.803 209.544C407.187 209.352 407.427 209.16 407.523 208.968C407.619 208.744 407.667 208.52 407.667 208.296C407.667 208.072 407.619 207.832 407.523 207.576C407.459 207.288 407.235 207.032 406.851 206.808C406.499 206.584 405.955 206.408 405.219 206.28C404.483 206.12 403.475 206.04 402.195 206.04ZM393.027 193.56C393.027 192.824 393.251 192.2 393.699 191.688C394.147 191.176 394.979 190.92 396.195 190.92H396.579C397.795 190.92 398.627 191.176 399.075 191.688C399.523 192.2 399.747 192.824 399.747 193.56V194.136C399.747 194.872 399.523 195.496 399.075 196.008C398.627 196.52 397.795 196.776 396.579 196.776H396.195C394.979 196.776 394.147 196.52 393.699 196.008C393.251 195.496 393.027 194.872 393.027 194.136V193.56ZM402.627 193.56C402.627 192.824 402.851 192.2 403.299 191.688C403.747 191.176 404.579 190.92 405.795 190.92H406.179C407.395 190.92 408.227 191.176 408.675 191.688C409.123 192.2 409.347 192.824 409.347 193.56V194.136C409.347 194.872 409.123 195.496 408.675 196.008C408.227 196.52 407.395 196.776 406.179 196.776H405.795C404.579 196.776 403.747 196.52 403.299 196.008C402.851 195.496 402.627 194.872 402.627 194.136V193.56ZM435.171 219.72L429.027 211.944V225H421.347V201H428.259L436.947 211.656L445.635 201H452.547V225H444.867V211.944L438.723 219.72H435.171ZM468.16 192.84L466.24 213.48H460.48L458.56 192.84H468.16ZM458.512 220.824C458.512 220.28 458.576 219.768 458.704 219.288C458.864 218.776 459.12 218.344 459.472 217.992C459.824 217.608 460.288 217.304 460.864 217.08C461.472 216.856 462.224 216.744 463.12 216.744H463.504C464.4 216.744 465.136 216.856 465.712 217.08C466.32 217.304 466.8 217.608 467.152 217.992C467.504 218.344 467.744 218.776 467.872 219.288C468.032 219.768 468.112 220.28 468.112 220.824V221.4C468.112 222.52 467.792 223.48 467.152 224.28C466.512 225.08 465.296 225.48 463.504 225.48H463.12C461.328 225.48 460.112 225.08 459.472 224.28C458.832 223.48 458.512 222.52 458.512 221.4V220.824Z"
                                fill="#285497" />
                            <circle cx="43.5" cy="259.5" r="20.5" fill="white" />
                            <circle cx="70.5" cy="293.5" r="11.5" fill="white" />
                            <circle cx="15.5" cy="293.5" r="15.5" fill="white" />
                            <circle cx="704.5" cy="49.5" r="20.5" fill="white" />
                            <circle cx="704.5" cy="11.5" r="11.5" fill="white" />
                            <circle cx="662.5" cy="22.5" r="15.5" fill="white" />
                        </svg>