<svg width="533" height="397" viewBox="0 0 533 397" fill="none" xmlns="http://www.w3.org/2000/svg">
<path fill-rule="evenodd" clip-rule="evenodd" d="M373.5 23C368.253 23 364 27.2533 364 32.5V138.575L334.399 96.3775C329.339 89.1639 318 92.7444 318 101.556C318 103.451 318.597 105.299 319.707 106.836L369.136 175.266C371.531 178.582 376.469 178.582 378.864 175.266L428.293 106.836C429.403 105.299 430 103.451 430 101.556C430 92.7444 418.661 89.164 413.601 96.3776L383 140.001V32.5C383 27.2533 378.747 23 373.5 23Z" fill="#285497" fill-opacity="0.4"/>
<path fill-rule="evenodd" clip-rule="evenodd" d="M123 0C119.686 0 117 2.68629 117 6V70.2823L98.3886 43.7885C95.1804 39.2215 88 41.4915 88 47.0727C88 48.2752 88.3794 49.447 89.0841 50.4213L118.639 91.2792C121.034 94.5905 125.966 94.5905 128.361 91.2792L157.916 50.4213C158.621 49.447 159 48.2752 159 47.0727C159 41.4915 151.82 39.2215 148.611 43.7885L129 71.7058V6C129 2.68629 126.314 0 123 0Z" fill="#285497" fill-opacity="0.4"/>
<path fill-rule="evenodd" clip-rule="evenodd" d="M461 256C457.686 256 455 258.686 455 262V326.282L436.389 299.789C433.18 295.222 426 297.491 426 303.073C426 304.275 426.379 305.447 427.084 306.421L456.639 347.279C459.034 350.59 463.966 350.59 466.361 347.279L495.916 306.421C496.621 305.447 497 304.275 497 303.073C497 297.491 489.82 295.222 486.611 299.789L467 327.706V262C467 258.686 464.314 256 461 256Z" fill="#285497" fill-opacity="0.4"/>
<path fill-rule="evenodd" clip-rule="evenodd" d="M99.5 242C94.2533 242 90 246.253 90 251.5V357.575L60.3989 315.378C55.3387 308.164 44 311.744 44 320.556C44 322.451 44.5974 324.299 45.7074 325.836L95.1362 394.266C97.5311 397.582 102.469 397.582 104.864 394.266L154.293 325.836C155.403 324.299 156 322.451 156 320.556C156 311.744 144.661 308.164 139.601 315.378L109 359.001V251.5C109 246.253 104.747 242 99.5 242Z" fill="#285497" fill-opacity="0.4"/>
<path fill-rule="evenodd" clip-rule="evenodd" d="M26.5 107C24.0147 107 22 109.015 22 111.5V160.629L7.93868 140.413C5.5009 136.908 0 138.633 0 142.903C0 143.813 0.285115 144.701 0.81533 145.441L22.1221 175.19C24.5155 178.531 29.4845 178.531 31.8779 175.19L53.1847 145.441C53.7149 144.701 54 143.813 54 142.903C54 138.633 48.4991 136.908 46.0613 140.413L31 162.066V111.5C31 109.015 28.9853 107 26.5 107Z" fill="#285497" fill-opacity="0.4"/>
<path fill-rule="evenodd" clip-rule="evenodd" d="M505.5 143C503.015 143 501 145.015 501 147.5V196.629L486.939 176.413C484.501 172.908 479 174.633 479 178.903C479 179.813 479.285 180.701 479.815 181.441L501.122 211.19C503.516 214.531 508.484 214.531 510.878 211.19L532.185 181.441C532.715 180.701 533 179.813 533 178.903C533 174.633 527.499 172.908 525.061 176.413L510 198.066V147.5C510 145.015 507.985 143 505.5 143Z" fill="#285497" fill-opacity="0.4"/>
</svg>
