<svg width="817" height="600" viewBox="0 0 817 600" fill="none" xmlns="http://www.w3.org/2000/svg">
<path d="M272.246 191.449C347.425 116.296 469.313 116.296 544.491 191.449L204.185 531.644C166.595 569.221 105.651 569.221 68.0617 531.644C30.4722 494.068 30.4722 433.143 68.0617 395.566L272.246 191.449Z" fill="#FF9D00"/>
<path d="M544.452 463.619C469.271 538.772 347.384 538.772 272.205 463.619L612.511 123.424C650.1 85.8471 711.048 85.8471 748.637 123.424C786.226 161.001 786.226 221.925 748.637 259.502L544.452 463.619Z" fill="#48CAED"/>
<path d="M544.622 191.409C526.746 173.539 505.524 159.364 482.169 149.693C458.814 140.022 433.78 135.044 408.5 135.044C383.22 135.044 358.187 140.022 334.831 149.693C311.475 159.364 290.253 173.539 272.377 191.409C254.501 209.279 240.321 230.494 230.647 253.842C220.972 277.191 215.993 302.215 215.993 327.487C215.993 352.759 220.972 377.784 230.647 401.132C240.321 424.48 254.501 445.695 272.377 463.565L408.5 327.487L544.622 191.409Z" fill="#F73C5C"/>
<path d="M272.377 463.565C290.253 481.436 311.475 495.611 334.831 505.283C358.187 514.952 383.22 519.932 408.5 519.932C433.78 519.932 458.814 514.952 482.169 505.283C505.524 495.611 526.746 481.436 544.622 463.565C562.498 445.695 576.678 424.48 586.353 401.132C596.029 377.784 601.007 352.759 601.007 327.487C601.007 302.215 596.029 277.191 586.353 253.842C576.678 230.494 562.498 209.279 544.622 191.409L408.5 327.487L272.377 463.565Z" fill="#2A8BEA"/>
<path d="M156.729 48.9793C155.308 51.6276 153.918 54.0621 152.56 56.28C151.263 58.4979 149.72 60.4069 147.928 62.0096C146.199 63.549 144.161 64.7504 141.813 65.6138C139.465 66.5379 136.625 67 133.29 67C131.932 67 130.449 66.9076 128.843 66.7227C127.236 66.5986 125.817 66.3848 124.581 66.0759V51.1048C125.817 51.4137 127.207 51.6276 128.75 51.7517C130.293 51.8758 131.59 51.9366 132.641 51.9366C135.296 51.9366 137.149 51.5669 138.2 50.8276C139.312 50.0883 140.206 48.9186 140.887 47.3159L113 6.93103V3.23448H129.676L148.854 33.0841L165.716 3.23448H181.466V6.93103L156.729 48.9793ZM183.195 40.2C183.195 36.9964 183.597 34.0083 184.399 31.2359C185.201 28.4019 186.623 25.9374 188.661 23.8428C190.699 21.7481 193.418 20.1153 196.814 18.9448C200.21 17.7126 204.503 17.0966 209.692 17.0966H212.286C215.621 17.0966 218.864 17.3123 222.014 17.7435C225.225 18.1131 228.345 18.6676 231.371 19.4069V33.1766C227.911 32.1909 224.454 31.5131 220.995 31.1434C217.535 30.7123 214.509 30.4965 211.915 30.4965C208.455 30.4965 205.769 30.8047 203.855 31.4207C202.002 31.9752 200.644 32.776 199.778 33.8234C198.913 34.8091 198.389 36.0105 198.203 37.4276C198.079 38.8447 198.018 40.3848 198.018 42.0483C198.018 43.7117 198.079 45.2519 198.203 46.669C198.389 48.0869 198.913 49.3173 199.778 50.3655C200.644 51.3504 202.002 52.1531 203.855 52.7683C205.769 53.3228 208.455 53.6 211.915 53.6C214.509 53.6 217.535 53.4152 220.995 53.0455C224.454 52.6151 227.911 51.9049 231.371 50.92V64.6897C228.345 65.429 225.225 65.9835 222.014 66.3531C218.864 66.7835 215.621 67 212.286 67H209.692C204.503 67 200.21 66.3848 196.814 65.1517C193.418 63.982 190.699 62.3476 188.661 60.2538C186.623 58.1599 185.201 55.7255 184.399 52.9531C183.597 50.12 183.195 47.0993 183.195 43.8965V40.2ZM296.841 18.9448V65.1517H282.017V31.8828H257.744V65.1517H242.92V18.9448H296.841ZM308.414 40.2C308.414 36.9964 308.813 34.0083 309.618 31.2359C310.42 28.4019 311.841 25.9374 313.88 23.8428C315.918 21.7481 318.634 20.1153 322.033 18.9448C325.429 17.7126 329.722 17.0966 334.911 17.0966H337.505C342.693 17.0966 346.984 17.7126 350.383 18.9448C353.779 20.1153 356.497 21.7481 358.536 23.8428C360.574 25.9374 361.993 28.4019 362.797 31.2359C363.599 34.0083 364.002 36.9964 364.002 40.2V43.8965C364.002 47.0993 363.599 50.12 362.797 52.9531C361.993 55.7255 360.574 58.1599 358.536 60.2538C356.497 62.3476 353.779 63.982 350.383 65.1517C346.984 66.3848 342.693 67 337.505 67H334.911C329.722 67 325.429 66.3848 322.033 65.1517C318.634 63.982 315.918 62.3476 313.88 60.2538C311.841 58.1599 310.42 55.7255 309.618 52.9531C308.813 50.12 308.414 47.0993 308.414 43.8965V40.2ZM323.237 42.0483C323.237 43.5269 323.298 44.9746 323.422 46.3917C323.544 47.8096 324.007 49.04 324.812 50.0883C325.675 51.1365 326.972 51.9973 328.703 52.6759C330.432 53.2911 332.933 53.6 336.208 53.6C339.419 53.6 341.888 53.2911 343.619 52.6759C345.409 51.9973 346.706 51.1365 347.511 50.0883C348.374 49.04 348.868 47.8096 348.993 46.3917C349.115 44.9746 349.178 43.5269 349.178 42.0483C349.178 40.5697 349.115 39.1219 348.993 37.7048C348.868 36.2877 348.374 35.0557 347.511 34.0083C346.706 32.9608 345.409 32.1291 343.619 31.5131C341.888 30.8353 339.419 30.4965 336.208 30.4965C332.933 30.4965 330.432 30.8353 328.703 31.5131C326.972 32.1291 325.675 32.9608 324.812 34.0083C324.007 35.0557 323.544 36.2877 323.422 37.7048C323.298 39.1219 323.237 40.5697 323.237 42.0483ZM415.116 65.1517L404.74 48.8869H389.916V65.1517H375.093V18.9448L389.916 19.0372V35.2096H404.74L415.116 18.9448H429.384V22.6414L417.062 42.0483L429.384 61.4552V65.1517H415.116ZM436.798 40.2C436.798 36.9964 437.198 34.0083 438.003 31.2359C438.805 28.4019 440.226 25.9374 442.264 23.8428C444.303 21.7481 447.019 20.1153 450.417 18.9448C453.814 17.7126 458.107 17.0966 463.295 17.0966H465.889C471.078 17.0966 475.369 17.7126 478.767 18.9448C482.164 20.1153 484.882 21.7481 486.92 23.8428C488.959 25.9374 490.377 28.4019 491.182 31.2359C491.984 34.0083 492.387 36.9964 492.387 40.2V43.8965C492.387 47.0993 491.984 50.12 491.182 52.9531C490.377 55.7255 488.959 58.1599 486.92 60.2538C484.882 62.3476 482.164 63.982 478.767 65.1517C475.369 66.3848 471.078 67 465.889 67H463.295C458.107 67 453.814 66.3848 450.417 65.1517C447.019 63.982 444.303 62.3476 442.264 60.2538C440.226 58.1599 438.805 55.7255 438.003 52.9531C437.198 50.12 436.798 47.0993 436.798 43.8965V40.2ZM451.622 42.0483C451.622 43.5269 451.683 44.9746 451.807 46.3917C451.929 47.8096 452.392 49.04 453.197 50.0883C454.06 51.1365 455.357 51.9973 457.088 52.6759C458.817 53.2911 461.318 53.6 464.592 53.6C467.803 53.6 470.273 53.2911 472.004 52.6759C473.794 51.9973 475.091 51.1365 475.895 50.0883C476.758 49.04 477.253 47.8096 477.378 46.3917C477.499 44.9746 477.563 43.5269 477.563 42.0483C477.563 40.5697 477.499 39.1219 477.378 37.7048C477.253 36.2877 476.758 35.0557 475.895 34.0083C475.091 32.9608 473.794 32.1291 472.004 31.5131C470.273 30.8353 467.803 30.4965 464.592 30.4965C461.318 30.4965 458.817 30.8353 457.088 31.5131C455.357 32.1291 454.06 32.9608 453.197 34.0083C452.392 35.0557 451.929 36.2877 451.807 37.7048C451.683 39.1219 451.622 40.5697 451.622 42.0483ZM559.622 18.9448V65.1517H544.798V36.6883L518.764 65.1517H503.941V18.9448H518.764V47.4083L544.798 18.9448H559.622ZM545.632 0V2.03311C545.632 3.45021 545.415 4.80551 544.983 6.0993C544.613 7.3931 543.903 8.53296 542.853 9.51862C541.865 10.5043 540.476 11.2745 538.684 11.829C536.955 12.3834 534.761 12.6607 532.106 12.6607H531.364C528.709 12.6607 526.486 12.3834 524.694 11.829C522.965 11.2745 521.576 10.5043 520.525 9.51862C519.537 8.53296 518.825 7.3931 518.394 6.0993C518.023 4.80551 517.838 3.45021 517.838 2.03311V0H526.176V2.03311C526.176 2.89572 526.515 3.66566 527.195 4.34345C527.936 4.95946 529.326 5.26759 531.364 5.26759H532.106C534.144 5.26759 535.502 4.95946 536.182 4.34345C536.923 3.66566 537.294 2.89572 537.294 2.03311V0H545.632ZM571.245 40.2C571.245 36.9964 571.645 34.0083 572.449 31.2359C573.251 28.4019 574.673 25.9374 576.711 23.8428C578.749 21.7481 581.465 20.1153 584.864 18.9448C588.26 17.7126 592.554 17.0966 597.742 17.0966H600.336C603.671 17.0966 606.914 17.3123 610.064 17.7435C613.275 18.1131 616.393 18.6676 619.421 19.4069V33.1766C615.962 32.1909 612.502 31.5131 609.045 31.1434C605.585 30.7123 602.56 30.4965 599.965 30.4965C596.506 30.4965 593.819 30.8047 591.905 31.4207C590.052 31.9752 588.692 32.776 587.829 33.8234C586.963 34.8091 586.439 36.0105 586.254 37.4276C586.129 38.8447 586.068 40.3848 586.068 42.0483C586.068 43.7117 586.129 45.2519 586.254 46.669C586.439 48.0869 586.963 49.3173 587.829 50.3655C588.692 51.3504 590.052 52.1531 591.905 52.7683C593.819 53.3228 596.506 53.6 599.965 53.6C602.56 53.6 605.585 53.4152 609.045 53.0455C612.502 52.6151 615.962 51.9049 619.421 50.92V64.6897C616.393 65.429 613.275 65.9835 610.064 66.3531C606.914 66.7835 603.671 67 600.336 67H597.742C592.554 67 588.26 66.3848 584.864 65.1517C581.465 63.982 578.749 62.3476 576.711 60.2538C574.673 58.1599 573.251 55.7255 572.449 52.9531C571.645 50.12 571.245 47.0993 571.245 43.8965V40.2ZM630.968 32.4372C630.968 30.3426 631.309 28.4019 631.987 26.6152C632.728 24.7669 633.932 23.165 635.6 21.8096C637.331 20.4543 639.648 19.4069 642.549 18.6676C645.513 17.8668 649.219 17.4662 653.666 17.4662H655.705C660.215 17.4662 664.784 17.5895 669.416 17.8359C674.112 18.0822 678.588 18.4519 682.85 18.9448V65.1517H669.509V49.9959C667.164 50.12 664.816 50.2124 662.468 50.2731C660.183 50.3338 657.928 50.3655 655.705 50.3655H654.222L644.772 65.1517H630.505V61.4552L639.028 48.0552C635.942 46.7006 633.811 44.944 632.635 42.7876C631.524 40.5696 630.968 38.1054 630.968 35.3945V32.4372ZM655.241 38.5366C657.219 38.5366 659.442 38.5056 661.912 38.4441C664.384 38.3208 666.915 38.136 669.509 37.8897V29.9421C666.915 29.6957 664.384 29.5415 661.912 29.48C659.442 29.3567 657.219 29.2952 655.241 29.2952C652.957 29.2952 651.165 29.4185 649.868 29.6648C648.571 29.9112 647.615 30.2502 646.996 30.6814C646.379 31.1126 645.977 31.6055 645.791 32.16C645.67 32.7145 645.606 33.2999 645.606 33.9159C645.606 34.5319 645.67 35.1172 645.791 35.6717C645.977 36.2262 646.379 36.7192 646.996 37.1503C647.615 37.5815 648.571 37.9205 649.868 38.1669C651.165 38.4132 652.957 38.5366 655.241 38.5366ZM713 3.23448L709.294 42.9724H698.177L694.471 3.23448H713ZM694.378 57.1117C694.378 56.0635 694.502 55.0786 694.749 54.1545C695.058 53.1696 695.553 52.3379 696.231 51.6593C696.911 50.92 697.806 50.3338 698.918 49.9034C700.093 49.4731 701.544 49.2565 703.272 49.2565H704.013C705.744 49.2565 707.163 49.4731 708.275 49.9034C709.45 50.3338 710.377 50.92 711.054 51.6593C711.735 52.3379 712.198 53.1696 712.444 54.1545C712.754 55.0786 712.907 56.0635 712.907 57.1117V58.2207C712.907 60.3779 712.291 62.2262 711.054 63.7655C709.821 65.3049 707.473 66.0759 704.013 66.0759H703.272C699.815 66.0759 697.467 65.3049 696.231 63.7655C694.997 62.2262 694.378 60.3779 694.378 58.2207V57.1117Z" fill="white"/>
</svg>
