<svg xmlns="http://www.w3.org/2000/svg" width="172" height="71" viewBox="0 0 172 71" fill="none">
    <path d="M35.3554 17.7454C45.1185 7.94779 60.9476 7.94779 70.7106 17.7454L26.5166 62.0956C21.635 66.9944 13.7205 66.9944 8.83891 62.0956C3.95734 57.1969 3.95734 49.2544 8.83891 44.3556L35.3554 17.7454Z" fill="#FF9D00"/>
    <path d="M70.7056 53.2274C60.9421 63.0249 45.1132 63.0249 35.3501 53.2274L79.5441 8.87712C84.4256 3.9783 92.3406 3.97829 97.2221 8.87712C102.104 13.7759 102.104 21.7184 97.2221 26.6172L70.7056 53.2274Z" fill="#48CAED"/>
    <path d="M70.7273 17.7401C68.4058 15.4105 65.6498 13.5625 62.6168 12.3017C59.5838 11.0409 56.3328 10.3919 53.0498 10.3919C49.7668 10.3919 46.5159 11.0409 43.4827 12.3017C40.4496 13.5625 37.6936 15.4105 35.3721 17.7402C33.0507 20.0698 31.2092 22.8355 29.9528 25.8794C28.6965 28.9232 28.0498 32.1856 28.0498 35.4803C28.0498 38.7749 28.6965 42.0373 29.9528 45.0812C31.2092 48.125 33.0507 50.8907 35.3722 53.2204L53.0498 35.4803L70.7273 17.7401Z" fill="#F73C5C"/>
    <path d="M35.3726 53.2204C37.694 55.5501 40.45 57.3981 43.4831 58.6591C46.5163 59.9195 49.7672 60.5688 53.0502 60.5688C56.3332 60.5688 59.5842 59.9195 62.6172 58.6591C65.6502 57.3981 68.4062 55.5501 70.7277 53.2204C73.0492 50.8907 74.8907 48.125 76.1472 45.0812C77.4037 42.0373 78.0502 38.7749 78.0502 35.4803C78.0502 32.1856 77.4037 28.9233 76.1472 25.8794C74.8907 22.8355 73.0492 20.0698 70.7277 17.7402L53.0502 35.4803L35.3726 53.2204Z" fill="#2A8BEA"/>
    <path d="M61.7473 50.7161C61.4788 51.2193 61.2163 51.682 60.9598 52.1035C60.7148 52.5249 60.4233 52.8877 60.0848 53.1923C59.7583 53.4848 59.3733 53.7131 58.9298 53.8772C58.4863 54.0528 57.9498 54.1406 57.3198 54.1406C57.0633 54.1406 56.7833 54.1231 56.4798 54.0879C56.1763 54.0644 55.9083 54.0237 55.6748 53.965V51.12C55.9083 51.1787 56.1708 51.2193 56.4623 51.2429C56.7538 51.2665 56.9988 51.278 57.1973 51.278C57.6988 51.278 58.0488 51.2078 58.2473 51.0673C58.4573 50.9268 58.6263 50.7045 58.7548 50.4L53.4873 42.7254V42.023H56.6373L60.2598 47.6954L63.4448 42.023H66.4198V42.7254L61.7473 50.7161ZM66.7463 49.0477C66.7463 48.4389 66.8223 47.871 66.9738 47.3442C67.1253 46.8056 67.3938 46.3373 67.7788 45.9392C68.1638 45.5412 68.6773 45.2309 69.3188 45.0085C69.9603 44.7743 70.7713 44.6572 71.7513 44.6572H72.2413C72.8713 44.6572 73.4838 44.6982 74.0788 44.7802C74.6853 44.8504 75.2748 44.9558 75.8463 45.0963V47.713C75.1928 47.5257 74.5398 47.3969 73.8863 47.3266C73.2328 47.2447 72.6613 47.2037 72.1713 47.2037C71.5178 47.2037 71.0103 47.2623 70.6488 47.3793C70.2988 47.4847 70.0423 47.6369 69.8788 47.8359C69.7153 48.0232 69.6163 48.2515 69.5813 48.5208C69.5578 48.7901 69.5463 49.0828 69.5463 49.3989C69.5463 49.715 69.5578 50.0077 69.5813 50.277C69.6163 50.5465 69.7153 50.7803 69.8788 50.9795C70.0423 51.1667 70.2988 51.3192 70.6488 51.4361C71.0103 51.5415 71.5178 51.5942 72.1713 51.5942C72.6613 51.5942 73.2328 51.559 73.8863 51.4888C74.5398 51.407 75.1928 51.272 75.8463 51.0849V53.7016C75.2748 53.8421 74.6853 53.9474 74.0788 54.0177C73.4838 54.0995 72.8713 54.1406 72.2413 54.1406H71.7513C70.7713 54.1406 69.9603 54.0237 69.3188 53.7894C68.6773 53.5671 68.1638 53.2565 67.7788 52.8586C67.3938 52.4607 67.1253 51.9981 66.9738 51.4712C66.8223 50.9328 66.7463 50.3588 66.7463 49.7502V49.0477ZM88.2128 45.0085V53.7894H85.4128V47.4671H80.8278V53.7894H78.0278V45.0085H88.2128ZM90.3988 49.0477C90.3988 48.4389 90.4743 47.871 90.6263 47.3442C90.7778 46.8056 91.0463 46.3373 91.4313 45.9392C91.8163 45.5412 92.3293 45.2309 92.9713 45.0085C93.6128 44.7743 94.4238 44.6572 95.4038 44.6572H95.8938C96.8738 44.6572 97.6843 44.7743 98.3263 45.0085C98.9678 45.2309 99.4813 45.5412 99.8663 45.9392C100.251 46.3373 100.519 46.8056 100.671 47.3442C100.823 47.871 100.899 48.4389 100.899 49.0477V49.7502C100.899 50.3588 100.823 50.9328 100.671 51.4712C100.519 51.9981 100.251 52.4607 99.8663 52.8586C99.4813 53.2565 98.9678 53.5671 98.3263 53.7894C97.6843 54.0237 96.8738 54.1406 95.8938 54.1406H95.4038C94.4238 54.1406 93.6128 54.0237 92.9713 53.7894C92.3293 53.5671 91.8163 53.2565 91.4313 52.8586C91.0463 52.4607 90.7778 51.9981 90.6263 51.4712C90.4743 50.9328 90.3988 50.3588 90.3988 49.7502V49.0477ZM93.1988 49.3989C93.1988 49.6799 93.2103 49.955 93.2338 50.2243C93.2568 50.4938 93.3443 50.7276 93.4963 50.9268C93.6593 51.126 93.9043 51.2896 94.2313 51.4185C94.5578 51.5355 95.0303 51.5942 95.6488 51.5942C96.2553 51.5942 96.7218 51.5355 97.0488 51.4185C97.3868 51.2896 97.6318 51.126 97.7838 50.9268C97.9468 50.7276 98.0403 50.4938 98.0638 50.2243C98.0868 49.955 98.0988 49.6799 98.0988 49.3989C98.0988 49.1179 98.0868 48.8428 98.0638 48.5735C98.0403 48.3042 97.9468 48.0701 97.7838 47.871C97.6318 47.672 97.3868 47.5139 97.0488 47.3969C96.7218 47.2681 96.2553 47.2037 95.6488 47.2037C95.0303 47.2037 94.5578 47.2681 94.2313 47.3969C93.9043 47.5139 93.6593 47.672 93.4963 47.871C93.3443 48.0701 93.2568 48.3042 93.2338 48.5735C93.2103 48.8428 93.1988 49.1179 93.1988 49.3989ZM110.554 53.7894L108.594 50.6985H105.794V53.7894H102.994V45.0085L105.794 45.026V48.0994H108.594L110.554 45.0085H113.249V45.7109L110.921 49.3989L113.249 53.0869V53.7894H110.554ZM114.649 49.0477C114.649 48.4389 114.725 47.871 114.877 47.3442C115.028 46.8056 115.297 46.3373 115.682 45.9392C116.067 45.5412 116.58 45.2309 117.222 45.0085C117.863 44.7743 118.674 44.6572 119.654 44.6572H120.144C121.124 44.6572 121.935 44.7743 122.577 45.0085C123.218 45.2309 123.732 45.5412 124.117 45.9392C124.502 46.3373 124.77 46.8056 124.922 47.3442C125.073 47.871 125.149 48.4389 125.149 49.0477V49.7502C125.149 50.3588 125.073 50.9328 124.922 51.4712C124.77 51.9981 124.502 52.4607 124.117 52.8586C123.732 53.2565 123.218 53.5671 122.577 53.7894C121.935 54.0237 121.124 54.1406 120.144 54.1406H119.654C118.674 54.1406 117.863 54.0237 117.222 53.7894C116.58 53.5671 116.067 53.2565 115.682 52.8586C115.297 52.4607 115.028 51.9981 114.877 51.4712C114.725 50.9328 114.649 50.3588 114.649 49.7502V49.0477ZM117.449 49.3989C117.449 49.6799 117.461 49.955 117.484 50.2243C117.507 50.4938 117.595 50.7276 117.747 50.9268C117.91 51.126 118.155 51.2896 118.482 51.4185C118.808 51.5355 119.281 51.5942 119.899 51.5942C120.506 51.5942 120.972 51.5355 121.299 51.4185C121.637 51.2896 121.882 51.126 122.034 50.9268C122.197 50.7276 122.291 50.4938 122.314 50.2243C122.337 49.955 122.349 49.6799 122.349 49.3989C122.349 49.1179 122.337 48.8428 122.314 48.5735C122.291 48.3042 122.197 48.0701 122.034 47.871C121.882 47.672 121.637 47.5139 121.299 47.3969C120.972 47.2681 120.506 47.2037 119.899 47.2037C119.281 47.2037 118.808 47.2681 118.482 47.3969C118.155 47.5139 117.91 47.672 117.747 47.871C117.595 48.0701 117.507 48.3042 117.484 48.5735C117.461 48.8428 117.449 49.1179 117.449 49.3989ZM137.849 45.0085V53.7894H135.049V48.3803L130.132 53.7894H127.332V45.0085H130.132V50.4175L135.049 45.0085H137.849ZM135.207 41.4083V41.7947C135.207 42.064 135.166 42.3215 135.084 42.5674C135.014 42.8132 134.88 43.0299 134.682 43.2172C134.495 43.4045 134.233 43.5508 133.894 43.6562C133.568 43.7616 133.153 43.8143 132.652 43.8143H132.512C132.01 43.8143 131.59 43.7616 131.252 43.6562C130.925 43.5508 130.663 43.4045 130.464 43.2172C130.278 43.0299 130.143 42.8132 130.062 42.5674C129.992 42.3215 129.957 42.064 129.957 41.7947V41.4083H131.532V41.7947C131.532 41.9586 131.596 42.1049 131.724 42.2337C131.864 42.3508 132.127 42.4093 132.512 42.4093H132.652C133.037 42.4093 133.293 42.3508 133.422 42.2337C133.562 42.1049 133.632 41.9586 133.632 41.7947V41.4083H135.207ZM140.045 49.0477C140.045 48.4389 140.12 47.871 140.272 47.3442C140.424 46.8056 140.692 46.3373 141.077 45.9392C141.462 45.5412 141.975 45.2309 142.617 45.0085C143.259 44.7743 144.07 44.6572 145.05 44.6572H145.54C146.17 44.6572 146.782 44.6982 147.377 44.7802C147.984 44.8504 148.573 44.9558 149.145 45.0963V47.713C148.491 47.5257 147.838 47.3969 147.185 47.3266C146.531 47.2447 145.96 47.2037 145.47 47.2037C144.816 47.2037 144.309 47.2623 143.947 47.3793C143.597 47.4847 143.34 47.6369 143.177 47.8359C143.014 48.0232 142.915 48.2515 142.88 48.5208C142.856 48.7901 142.845 49.0828 142.845 49.3989C142.845 49.715 142.856 50.0077 142.88 50.277C142.915 50.5465 143.014 50.7803 143.177 50.9795C143.34 51.1667 143.597 51.3192 143.947 51.4361C144.309 51.5415 144.816 51.5942 145.47 51.5942C145.96 51.5942 146.531 51.559 147.185 51.4888C147.838 51.407 148.491 51.272 149.145 51.0849V53.7016C148.573 53.8421 147.984 53.9474 147.377 54.0177C146.782 54.0995 146.17 54.1406 145.54 54.1406H145.05C144.07 54.1406 143.259 54.0237 142.617 53.7894C141.975 53.5671 141.462 53.2565 141.077 52.8586C140.692 52.4607 140.424 51.9981 140.272 51.4712C140.12 50.9328 140.045 50.3588 140.045 49.7502V49.0477ZM151.326 47.5725C151.326 47.1744 151.39 46.8056 151.518 46.4661C151.658 46.1149 151.886 45.8104 152.201 45.5529C152.528 45.2953 152.965 45.0963 153.513 44.9558C154.073 44.8036 154.773 44.7275 155.613 44.7275H155.998C156.85 44.7275 157.713 44.7509 158.588 44.7977C159.475 44.8445 160.321 44.9148 161.126 45.0085V53.7894H158.606V50.9092C158.163 50.9328 157.719 50.9504 157.276 50.9619C156.844 50.9735 156.418 50.9795 155.998 50.9795H155.718L153.933 53.7894H151.238V53.0869L152.848 50.5405C152.265 50.283 151.863 49.9492 151.641 49.5394C151.431 49.1179 151.326 48.6496 151.326 48.1345V47.5725ZM155.911 48.7316C156.284 48.7316 156.704 48.7257 157.171 48.714C157.638 48.6906 158.116 48.6555 158.606 48.6086V47.0983C158.116 47.0515 157.638 47.0222 157.171 47.0105C156.704 46.9871 156.284 46.9754 155.911 46.9754C155.479 46.9754 155.141 46.9988 154.896 47.0456C154.651 47.0925 154.47 47.1569 154.353 47.2388C154.237 47.3208 154.161 47.4144 154.126 47.5198C154.103 47.6252 154.091 47.7364 154.091 47.8535C154.091 47.9706 154.103 48.0818 154.126 48.1872C154.161 48.2925 154.237 48.3862 154.353 48.4682C154.47 48.5501 154.651 48.6145 154.896 48.6613C155.141 48.7081 155.479 48.7316 155.911 48.7316ZM166.821 42.023L166.121 49.5745H164.021L163.321 42.023H166.821ZM163.303 52.2615C163.303 52.0623 163.327 51.8751 163.373 51.6995C163.432 51.5124 163.525 51.3543 163.653 51.2254C163.782 51.0849 163.951 50.9735 164.161 50.8917C164.383 50.8099 164.657 50.7688 164.983 50.7688H165.123C165.45 50.7688 165.718 50.8099 165.928 50.8917C166.15 50.9735 166.325 51.0849 166.453 51.2254C166.582 51.3543 166.669 51.5124 166.716 51.6995C166.774 51.8751 166.803 52.0623 166.803 52.2615V52.4723C166.803 52.8822 166.687 53.2334 166.453 53.526C166.22 53.8185 165.777 53.965 165.123 53.965H164.983C164.33 53.965 163.887 53.8185 163.653 53.526C163.42 53.2334 163.303 52.8822 163.303 52.4723V52.2615Z" fill="white"/>
</svg>